<svg xmlns="http://www.w3.org/2000/svg" width="22.001" height="20" viewBox="0 0 22.001 20"><defs><style>.a{fill:#f86400;}</style></defs><path class="a" d="M10.935,20h0L3.271,13.2A9.658,9.658,0,0,1,.223,8.23,6.026,6.026,0,0,1,.037,5.963C.357,2.508,2.861,0,5.991,0a5.74,5.74,0,0,1,4.948,2.857A6,6,0,0,1,13.1.769,5.923,5.923,0,0,1,16.009,0c3.13,0,5.634,2.508,5.954,5.963a6.04,6.04,0,0,1-.186,2.266A9.683,9.683,0,0,1,18.73,13.2L10.936,20ZM5.991.828C3.3.828,1.153,3.026.878,6.054l-.006.04A5.441,5.441,0,0,0,1.047,8.04a8.876,8.876,0,0,0,2.792,4.547l7.1,6.3,7.224-6.3A8.86,8.86,0,0,0,20.953,8.04,5.424,5.424,0,0,0,21.129,6.1V6.093C20.849,3.042,18.7.828,16.011.828a5.111,5.111,0,0,0-4.684,3.109l-.39.9-.392-.9A4.954,4.954,0,0,0,5.991.828Z"/><path class="a" d="M4.547,0A4.549,4.549,0,0,0,0,4.545a.454.454,0,1,0,.908,0A3.642,3.642,0,0,1,4.547.907a.454.454,0,0,0,0-.907Z" transform="translate(2 3)"/></svg>